<svg width="16" height="16" viewBox="0 0 16 16" fill="none" xmlns="http://www.w3.org/2000/svg">
<g clip-path="url(#clip0_43_5664)">
<path d="M8.92635 10.2915C9.05963 10.3527 9.20978 10.3667 9.35206 10.3312C9.49435 10.2956 9.62028 10.2127 9.70912 10.096L9.9382 9.79594C10.0584 9.63565 10.2143 9.50555 10.3935 9.41594C10.5727 9.32634 10.7703 9.27969 10.9707 9.27969H12.9066C13.2489 9.27969 13.5772 9.41566 13.8192 9.6577C14.0613 9.89974 14.1973 10.228 14.1973 10.5703V12.5062C14.1973 12.8485 14.0613 13.1768 13.8192 13.4189C13.5772 13.6609 13.2489 13.7969 12.9066 13.7969C9.82599 13.7969 6.87151 12.5731 4.69315 10.3947C2.5148 8.21639 1.29102 5.26191 1.29102 2.18125C1.29102 1.83895 1.42699 1.51068 1.66903 1.26864C1.91107 1.0266 2.23935 0.890625 2.58164 0.890625H4.51758C4.85987 0.890625 5.18815 1.0266 5.43019 1.26864C5.67223 1.51068 5.8082 1.83895 5.8082 2.18125V4.11719C5.8082 4.31755 5.76155 4.51516 5.67195 4.69437C5.58234 4.87358 5.45224 5.02947 5.29195 5.14969L4.98995 5.37619C4.87148 5.46665 4.78798 5.59533 4.75363 5.74037C4.71928 5.88542 4.7362 6.03788 4.80152 6.17186C5.68345 7.96316 7.13395 9.41185 8.92635 10.2915Z" stroke="#99A1AF" stroke-width="1.29062" stroke-linecap="round" stroke-linejoin="round"/>
</g>
<defs>
<clipPath id="clip0_43_5664">
<rect width="15.4875" height="15.4875" fill="white"/>
</clipPath>
</defs>
</svg>
