<svg width="23" height="18" viewBox="0 0 23 18" fill="none" xmlns="http://www.w3.org/2000/svg">
<g clip-path="url(#clip0_93_452)">
<path d="M17.8008 7.7998C17.8008 11.5446 13.6465 15.4446 12.2515 16.6491C12.1216 16.7468 11.9634 16.7996 11.8008 16.7996C11.6382 16.7996 11.48 16.7468 11.35 16.6491C9.95503 15.4446 5.80078 11.5446 5.80078 7.7998C5.80078 6.20851 6.43292 4.68238 7.55814 3.55716C8.68336 2.43195 10.2095 1.7998 11.8008 1.7998C13.3921 1.7998 14.9182 2.43195 16.0434 3.55716C17.1686 4.68238 17.8008 6.20851 17.8008 7.7998Z" stroke="white" stroke-width="1.5" stroke-linecap="round" stroke-linejoin="round"/>
<path d="M11.8008 10.0498C13.0434 10.0498 14.0508 9.04245 14.0508 7.7998C14.0508 6.55716 13.0434 5.5498 11.8008 5.5498C10.5581 5.5498 9.55078 6.55716 9.55078 7.7998C9.55078 9.04245 10.5581 10.0498 11.8008 10.0498Z" stroke="white" stroke-width="1.5" stroke-linecap="round" stroke-linejoin="round"/>
</g>
<defs>
<clipPath id="clip0_93_452">
<rect width="23" height="18" fill="white"/>
</clipPath>
</defs>
</svg>
