<svg width="39" height="39" viewBox="0 0 39 39" fill="none" xmlns="http://www.w3.org/2000/svg">
<mask id="mask0_43_5129" style="mask-type:luminance" maskUnits="userSpaceOnUse" x="0" y="0" width="39" height="39">
<path d="M38.1005 0H0V38.1005H38.1005V0Z" fill="white"/>
</mask>
<g mask="url(#mask0_43_5129)">
<path d="M8.1888 38.1006C7.60954 37.9778 7.0212 37.887 6.45236 37.7275C2.11416 36.5091 -0.678082 32.0084 0.143183 27.5792C0.222694 27.1507 0.460692 26.9476 0.81236 27.0087C1.15096 27.0674 1.31078 27.3596 1.23687 27.7858C0.491381 32.0972 3.39142 36.152 7.74828 36.8904C11.9336 37.5997 16.0295 34.6555 16.7331 30.432C17.3569 26.688 15.2147 23.015 11.6569 21.7291C8.09622 20.4417 4.14998 21.8635 2.21155 25.1316C1.91405 25.6331 1.64083 25.7707 1.31131 25.585C0.97005 25.3926 0.953504 25.0716 1.25848 24.5523C4.17186 19.5937 11.0136 18.6429 15.1589 22.6289C15.3696 22.8317 15.5084 22.8432 15.7507 22.6932C16.572 22.1843 17.4124 21.7067 18.2374 21.2037C18.3468 21.1369 18.4794 20.9937 18.4815 20.8834C18.5008 19.9174 18.4925 18.9509 18.4925 17.9934C17.83 17.8557 17.18 17.7632 16.5551 17.5836C12.5995 16.4471 9.86628 12.6584 10.0819 8.64144C10.314 4.32008 13.3439 0.853172 17.5208 0.130544C21.1503 -0.497353 24.8425 1.18246 26.7246 4.31821C26.9509 4.695 26.9119 5.00909 26.6161 5.19641C26.3204 5.38347 26.0229 5.28154 25.7793 4.91008C25.7521 4.86872 25.726 4.82656 25.6992 4.78467C24.7398 3.2807 23.4231 2.21411 21.7514 1.59742C16.3881 -0.381006 10.7734 3.88432 11.2238 9.58982C11.5299 13.4684 14.7429 16.6165 18.5128 16.8236C22.8291 17.0608 26.2361 13.9573 26.8097 10.2161C26.9541 9.27358 26.9378 8.33937 26.7531 7.40566C26.6678 6.97416 26.8126 6.6825 27.1457 6.61232C27.5082 6.536 27.7486 6.73534 27.8436 7.19191C28.8976 12.2549 25.3479 17.2243 20.2191 17.8672C20.0355 17.8902 19.8528 17.9185 19.6334 17.9492C19.6259 18.0668 19.6121 18.1856 19.6118 18.3043C19.6099 19.1105 19.6185 19.9169 19.6059 20.7228C19.6022 20.9595 19.666 21.1039 19.8826 21.2272C20.733 21.7115 21.5753 22.2104 22.4091 22.7225C22.6189 22.8511 22.7354 22.8285 22.9094 22.6615C26.1158 19.5887 30.987 19.2944 34.5247 21.953C34.663 22.057 34.806 22.1616 34.9196 22.29C35.1069 22.5019 35.1139 22.7503 34.945 22.9721C34.7678 23.205 34.5247 23.2722 34.252 23.1337C34.1649 23.0895 34.0875 23.024 34.0096 22.9635C29.2813 19.2917 22.4809 21.8689 21.3805 27.7502C20.5606 32.1327 23.7454 36.421 28.1913 36.9211C33.0874 37.4718 37.2468 33.5579 36.9696 28.649C36.9007 27.4319 36.5597 26.2861 35.948 25.2262C35.9109 25.1618 35.8728 25.0981 35.8357 25.0335C35.6013 24.6273 35.6353 24.3063 35.9317 24.1227C36.2462 23.9277 36.579 24.0312 36.7989 24.48C37.1404 25.1781 37.4733 25.8866 37.7271 26.6194C37.9187 27.1731 37.9809 27.7716 38.1006 28.3501C38.1006 28.871 38.1006 29.3922 38.1006 29.9131C38.0771 30.008 38.0465 30.1023 38.0315 30.1986C37.4523 33.9283 35.3791 36.4253 31.8232 37.6696C31.212 37.8836 30.5529 37.9602 29.9157 38.1C29.3949 38.1 28.8741 38.1 28.3533 38.1C28.1835 38.0707 28.0147 38.0367 27.8444 38.0125C21.3269 37.0903 17.9944 29.5744 21.6796 24.1099C21.7597 23.9912 21.8378 23.8708 21.9304 23.731C20.9971 23.1781 20.0953 22.6385 19.1844 22.1146C19.1059 22.0695 18.948 22.0997 18.8573 22.1499C18.4346 22.3834 18.0221 22.6355 17.6069 22.8822C17.1312 23.1647 16.6565 23.4487 16.1715 23.7379C16.2509 23.8545 16.3059 23.9359 16.3614 24.017C19.6803 28.8716 17.5979 35.4908 12.0864 37.5305C11.3399 37.8068 10.5312 37.9148 9.75098 38.1008C9.23072 38.1006 8.70993 38.1006 8.1888 38.1006Z" fill="white"/>
<path d="M11.2397 28.9132C12.6426 29.3917 13.7861 30.1851 14.7005 31.3138C14.9353 31.6038 14.9673 31.8766 14.7851 32.1984C13.5111 34.4485 11.5782 35.675 9.00107 35.6795C6.41025 35.684 4.46141 34.4666 3.18015 32.1987C2.99525 31.8713 3.02673 31.6052 3.26073 31.3167C4.17512 30.189 5.31816 29.3941 6.7467 28.9081C5.70772 27.9683 5.24612 26.8356 5.48359 25.4682C5.64368 24.5474 6.12128 23.8108 6.86677 23.252C8.30439 22.1745 10.3317 22.3664 11.5721 23.6646C12.6519 24.7952 13.1743 27.0837 11.2397 28.9132ZM13.6716 31.8681C13.6624 31.8454 13.658 31.8187 13.6429 31.8011C11.2876 29.0517 6.92894 28.9434 4.42086 31.6735C4.27918 31.8277 4.28557 31.9518 4.40831 32.0887C4.804 32.5296 5.15593 33.0259 5.61059 33.3947C8.17017 35.471 12.1681 34.701 13.6716 31.8681ZM6.54178 26.1241C6.54579 27.465 7.63707 28.5615 8.97304 28.5669C10.3204 28.5722 11.4355 27.4533 11.4275 26.1041C11.4195 24.7616 10.328 23.6694 8.99009 23.6651C7.63441 23.6609 6.53752 24.7624 6.54178 26.1241Z" fill="white"/>
<path d="M21.3097 8.75968C22.3375 9.1119 23.258 9.63333 24.0377 10.3813C24.3138 10.6463 24.5622 10.9412 24.8165 11.2283C25.0198 11.4578 25.0433 11.7065 24.8912 11.981C23.6257 14.2666 21.6902 15.5211 19.0794 15.5272C16.4568 15.5334 14.4992 14.2957 13.222 11.9952C13.0619 11.7067 13.096 11.465 13.2985 11.2107C14.1609 10.1284 15.2349 9.34168 16.5321 8.86001C16.6126 8.83013 16.6925 8.79783 16.8168 8.74926C15.8645 7.90496 15.3864 6.87331 15.507 5.61699C15.5984 4.66434 16.0224 3.86566 16.7543 3.2439C18.1674 2.04334 20.2758 2.14689 21.5827 3.45231C22.6902 4.55946 23.3093 6.88105 21.3097 8.75968ZM14.337 11.7302C15.4912 13.5277 17.1127 14.4831 19.2469 14.4142C21.223 14.3504 22.7196 13.4023 23.7583 11.7308C21.4565 8.87842 16.8266 8.745 14.337 11.7302ZM19.0501 8.40796C20.3916 8.40877 21.4911 7.32269 21.5024 5.98497C21.5138 4.63712 20.4023 3.51448 19.0546 3.51208C17.7224 3.50995 16.6126 4.6099 16.6025 5.94308C16.5924 7.29681 17.6946 8.40717 19.0501 8.40796Z" fill="white"/>
<path d="M26.8824 28.897C25.9645 28.0705 25.4923 27.0795 25.5787 25.8549C25.6446 24.9209 26.0258 24.135 26.7078 23.5032C28.0812 22.2303 30.1664 22.2255 31.5338 23.4949C32.32 24.225 32.704 25.1365 32.6808 26.2146C32.6576 27.294 32.179 28.1578 31.446 28.8257C32.1717 29.2525 32.9209 29.6303 33.5962 30.112C34.0728 30.4519 34.4541 30.9277 34.8682 31.3523C35.1067 31.5967 35.1084 31.8726 34.9424 32.1691C33.6651 34.4517 31.7142 35.6856 29.1079 35.6789C26.5179 35.6723 24.5792 34.4384 23.3084 32.1715C23.1336 31.8595 23.1781 31.5956 23.4014 31.3211C24.2742 30.2483 25.3455 29.4598 26.6529 28.9984C26.7191 28.9749 26.7818 28.9416 26.8824 28.897ZM33.8228 31.9012C31.6331 29.0131 26.7748 28.8921 24.4335 31.8766C25.3614 33.5303 27.2039 34.6124 29.138 34.5761C31.1768 34.5379 32.7361 33.6208 33.8228 31.9012ZM31.565 26.0991C31.5591 24.7558 30.4697 23.6668 29.1292 23.6643C27.777 23.6619 26.6665 24.7779 26.6787 26.1279C26.6908 27.4685 27.7876 28.5634 29.1212 28.5661C30.4715 28.5687 31.5708 27.4589 31.565 26.0991Z" fill="white"/>
</g>
</svg>
