<svg width="89" height="89" viewBox="0 0 89 89" fill="none" xmlns="http://www.w3.org/2000/svg">
<path d="M0 44.4506C0 19.9012 19.9012 0 44.4506 0C68.9999 0 88.9011 19.9012 88.9011 44.4506C88.9011 68.9999 68.9999 88.9011 44.4506 88.9011C19.9012 88.9011 0 68.9999 0 44.4506Z" fill="white" fill-opacity="0.2"/>
<mask id="mask0_43_5128" style="mask-type:luminance" maskUnits="userSpaceOnUse" x="24" y="25" width="39" height="39">
<path d="M62.786 25.4005H24.6855V63.5009H62.786V25.4005Z" fill="white"/>
</mask>
<g mask="url(#mask0_43_5128)">
<path d="M32.8743 63.501C32.2951 63.3782 31.7068 63.2875 31.1379 63.1279C26.7997 61.9095 24.0075 57.4089 24.8287 52.9797C24.9082 52.5511 25.1462 52.348 25.4979 52.4092C25.8365 52.4679 25.9963 52.7601 25.9224 53.1862C25.1769 57.4977 28.077 61.5525 32.4338 62.2908C36.6191 63.0001 40.715 60.0559 41.4186 55.8325C42.0425 52.0884 39.9002 48.4154 36.3425 47.1295C32.7818 45.8422 28.8355 47.264 26.8971 50.5321C26.5996 51.0336 26.3264 51.1712 25.9969 50.9855C25.6556 50.7931 25.6391 50.472 25.944 49.9528C28.8574 44.9942 35.6991 44.0434 39.8444 48.0293C40.0552 48.2322 40.194 48.2436 40.4363 48.0937C41.2575 47.5847 42.098 47.1071 42.923 46.6041C43.0324 46.5373 43.165 46.3941 43.1671 46.2839C43.1863 45.3179 43.178 44.3514 43.178 43.3939C42.5155 43.2562 41.8656 43.1636 41.2406 42.984C37.2851 41.8475 34.5518 38.0588 34.7675 34.0419C34.9995 29.7205 38.0295 26.2536 42.2063 25.531C45.8358 24.9031 49.528 26.5829 51.4102 29.7187C51.6364 30.0955 51.5974 30.4095 51.3016 30.5969C51.006 30.7839 50.7084 30.682 50.4649 30.3105C50.4376 30.2692 50.4115 30.227 50.3848 30.1851C49.4253 28.6812 48.1086 27.6146 46.437 26.9979C41.0736 25.0194 35.459 29.2848 35.9094 34.9903C36.2155 38.8689 39.4284 42.017 43.1984 42.224C47.5146 42.4612 50.9216 39.3578 51.4953 35.6166C51.6396 34.674 51.6234 33.7398 51.4387 32.8061C51.3533 32.3746 51.4982 32.0829 51.8312 32.0128C52.1938 31.9365 52.4342 32.1358 52.5292 32.5924C53.5831 37.6553 50.0334 42.6248 44.9046 43.2677C44.721 43.2906 44.5383 43.3189 44.319 43.3496C44.3114 43.4673 44.2977 43.586 44.2974 43.7048C44.2955 44.5109 44.304 45.3173 44.2915 46.1232C44.2878 46.3599 44.3515 46.5043 44.5682 46.6276C45.4185 47.1119 46.2608 47.6109 47.0947 48.123C47.3044 48.2516 47.421 48.2289 47.595 48.0619C50.8013 44.9891 55.6726 44.6948 59.2103 47.3534C59.3485 47.4575 59.4916 47.5621 59.6052 47.6904C59.7925 47.9023 59.7995 48.1507 59.6306 48.3725C59.4534 48.6055 59.2103 48.6727 58.9376 48.5342C58.8504 48.4899 58.773 48.4245 58.6951 48.364C53.9668 44.6921 47.1664 47.2693 46.0661 53.1507C45.2462 57.5331 48.4309 61.8214 52.8769 62.3216C57.773 62.8723 61.9324 58.9584 61.6551 54.0495C61.5863 52.8324 61.2453 51.6865 60.6335 50.6266C60.5964 50.5623 60.5583 50.4985 60.5212 50.4339C60.2869 50.0278 60.3208 49.7068 60.6173 49.5232C60.9318 49.3281 61.2645 49.4316 61.4844 49.8805C61.826 50.5785 62.1589 51.287 62.4126 52.0198C62.6042 52.5735 62.6664 53.1721 62.7862 53.7506C62.7862 54.2715 62.7862 54.7926 62.7862 55.3135C62.7627 55.4085 62.732 55.5027 62.7171 55.5991C62.1378 59.3288 60.0646 61.8257 56.5088 63.07C55.8975 63.284 55.2385 63.3606 54.6013 63.5005C54.0805 63.5005 53.5596 63.5005 53.0388 63.5005C52.8691 63.4711 52.7003 63.4372 52.53 63.413C46.0124 62.4907 42.6799 54.9749 46.3651 49.5104C46.4453 49.3916 46.5234 49.2712 46.616 49.1314C45.6827 48.5785 44.7808 48.039 43.8699 47.5151C43.7915 47.47 43.6335 47.5002 43.5428 47.5504C43.1202 47.7839 42.7077 48.036 42.2925 48.2826C41.8168 48.5652 41.3421 48.8491 40.857 49.1383C40.9365 49.255 40.9914 49.3364 41.047 49.4175C44.3659 54.272 42.2834 60.8912 36.772 62.931C36.0255 63.2072 35.2168 63.3153 34.4365 63.5012C33.9163 63.501 33.3955 63.501 32.8743 63.501Z" fill="white"/>
<path d="M35.9252 54.3137C37.3281 54.7921 38.4717 55.5855 39.3861 56.7143C39.6209 57.0043 39.6529 57.2771 39.4706 57.5988C38.1966 59.8489 36.2638 61.0754 33.6866 61.08C31.0958 61.0845 29.147 59.8671 27.8657 57.5991C27.6808 57.2717 27.7123 57.0057 27.9463 56.7172C28.8607 55.5895 30.0037 54.7946 31.4322 54.3086C30.3933 53.3688 29.9317 52.236 30.1691 50.8687C30.3292 49.9478 30.8068 49.2113 31.5523 48.6525C32.9899 47.575 35.0172 47.7668 36.2577 49.0651C37.3375 50.1956 37.8599 52.4841 35.9252 54.3137ZM38.3572 57.2685C38.3479 57.2459 38.3436 57.2191 38.3284 57.2015C35.9732 54.4522 31.6145 54.3439 29.1064 57.074C28.9647 57.2282 28.9711 57.3523 29.0939 57.4892C29.4896 57.93 29.8415 58.4263 30.2961 58.7951C32.8557 60.8715 36.8537 60.1014 38.3572 57.2685ZM31.2273 51.5245C31.2313 52.8655 32.3226 53.962 33.6586 53.9673C35.006 53.9727 36.1211 52.8538 36.1131 51.5046C36.105 50.1621 35.0135 49.0699 33.6756 49.0656C32.32 49.0613 31.2231 50.1628 31.2273 51.5245Z" fill="white"/>
<path d="M45.9953 34.1601C47.0231 34.5123 47.9435 35.0338 48.7232 35.7817C48.9994 36.0467 49.2478 36.3416 49.502 36.6287C49.7053 36.8583 49.7288 37.1069 49.5768 37.3815C48.3112 39.6671 46.3757 40.9216 43.7649 40.9277C41.1423 40.9338 39.1847 39.6962 37.9075 37.3956C37.7474 37.1072 37.7815 36.8654 37.9841 36.6111C38.8464 35.5288 39.9204 34.7421 41.2176 34.2605C41.2982 34.2306 41.378 34.1983 41.5023 34.1497C40.5501 33.3054 40.0719 32.2738 40.1925 31.0174C40.284 30.0648 40.708 29.2661 41.4399 28.6443C42.853 27.4438 44.9614 27.5473 46.2682 28.8528C47.3758 29.9599 47.9948 32.2815 45.9953 34.1601ZM39.0225 37.1307C40.1768 38.9282 41.7982 39.8835 43.9325 39.8147C45.9085 39.7509 47.4052 38.8027 48.4438 37.1312C46.142 34.2789 41.5122 34.1455 39.0225 37.1307ZM43.7356 33.8084C45.0771 33.8092 46.1767 32.7231 46.1879 31.3854C46.1994 30.0376 45.0878 28.9149 43.7402 28.9125C42.4079 28.9104 41.2982 30.0104 41.288 31.3435C41.278 32.6973 42.3802 33.8076 43.7356 33.8084Z" fill="white"/>
<path d="M51.5679 54.2974C50.6501 53.471 50.1778 52.4799 50.2643 51.2554C50.3301 50.3213 50.7114 49.5355 51.3934 48.9036C52.7667 47.6307 54.8519 47.6259 56.2194 48.8953C57.0056 49.6255 57.3896 50.537 57.3664 51.615C57.3431 52.6945 56.8645 53.5583 56.1315 54.2262C56.8573 54.6529 57.6065 55.0307 58.2818 55.5124C58.7584 55.8524 59.1397 56.3282 59.5537 56.7527C59.7923 56.9972 59.7939 57.2731 59.6279 57.5695C58.3506 59.8522 56.3997 61.0861 53.7934 61.0794C51.2034 61.0728 49.2648 59.8388 47.9939 57.572C47.8191 57.26 47.8637 56.9961 48.087 56.7215C48.9598 55.6488 50.031 54.8602 51.3384 54.3988C51.4046 54.3753 51.4673 54.342 51.5679 54.2974ZM58.5084 57.3016C56.3186 54.4135 51.4603 54.2926 49.1191 57.277C50.047 58.9308 51.8894 60.0128 53.8236 59.9766C55.8623 59.9384 57.4216 59.0212 58.5084 57.3016ZM56.2506 51.4996C56.2447 50.1562 55.1553 49.0672 53.8148 49.0648C52.4626 49.0624 51.352 50.1784 51.3643 51.5283C51.3763 52.869 52.4732 53.9638 53.8068 53.9666C55.1571 53.9692 56.2564 52.8594 56.2506 51.4996Z" fill="white"/>
</g>
</svg>
