<svg width="41" height="38" viewBox="0 0 41 38" fill="none" xmlns="http://www.w3.org/2000/svg">
<g clip-path="url(#clip0_43_5105)">
<mask id="mask0_43_5105" style="mask-type:luminance" maskUnits="userSpaceOnUse" x="0" y="0" width="41" height="38">
<path d="M40.4082 0H0V37.7143H40.4082V0Z" fill="white"/>
</mask>
<g mask="url(#mask0_43_5105)">
<path d="M40.4081 28.4066C40.0721 29.1963 39.4769 29.4574 38.625 29.4521C33.9296 29.4239 29.2338 29.4384 24.5379 29.4384C24.3841 29.4384 24.2298 29.4384 24.0542 29.4384C24.0542 30.6636 24.0542 31.8416 24.0542 33.0688C24.2217 33.0688 24.3756 33.0688 24.5291 33.0688C26.8441 33.0688 29.1589 33.0684 31.4739 33.0692C32.6238 33.0696 33.1446 33.5851 33.1454 34.7216C33.1458 35.1558 33.1458 35.5896 33.1454 36.0238C33.145 37.2042 32.6415 37.7129 31.4736 37.7129C27.2646 37.7133 23.0554 37.7129 18.8465 37.7129C18.2021 37.7129 17.5576 37.7154 16.9128 37.7105C16.7835 37.7097 16.6457 37.7029 16.5269 37.659C16.245 37.5546 16.0751 37.3158 16.1737 37.0431C16.2454 36.8442 16.4605 36.6754 16.649 36.5494C16.7501 36.4817 16.9305 36.5296 17.0751 36.5296C21.8499 36.5292 26.6242 36.5292 31.399 36.5292C31.9617 36.5292 31.9617 36.5288 31.962 35.9589C31.9625 35.5248 31.948 35.0902 31.9669 34.6568C31.9806 34.3398 31.8461 34.2231 31.5465 34.2517C31.4812 34.2581 31.4151 34.2525 31.3491 34.2525C23.9177 34.2525 16.4859 34.2525 9.05448 34.2525C8.44668 34.2525 8.44628 34.2529 8.44628 34.8586C8.44628 35.2795 8.45997 35.7011 8.44185 36.1212C8.42815 36.4322 8.54978 36.5357 8.85629 36.5336C10.4476 36.5236 12.0393 36.5288 13.631 36.5292C13.7495 36.5292 13.8683 36.5239 13.9859 36.5336C14.3222 36.561 14.5176 36.7459 14.5474 37.0818C14.5759 37.4 14.352 37.6582 14.0181 37.7057C13.9275 37.7186 13.8345 37.7125 13.7422 37.7129C12.0981 37.7133 10.454 37.7149 8.80998 37.7125C7.82683 37.7109 7.26698 37.1527 7.26336 36.176C7.26135 35.65 7.26094 35.1237 7.26336 34.5976C7.26779 33.6436 7.82803 33.0728 8.78138 33.0708C11.136 33.066 13.4901 33.0692 15.8447 33.0692C16.0006 33.0692 16.1568 33.0692 16.3441 33.0692C16.3441 31.8549 16.3441 30.6692 16.3441 29.4388C16.1737 29.4388 16.0195 29.4388 15.8652 29.4388C11.117 29.4388 6.36842 29.4388 1.62022 29.4388C0.515841 29.4388 0.000704838 28.9261 0.000302073 27.8262C-0.000100691 21.1574 -0.000100691 14.4891 0.000302073 7.82082C0.000302073 6.71889 0.512216 6.20579 1.6166 6.20458C2.99768 6.20297 4.37875 6.20418 5.75983 6.20418C5.90161 6.20418 6.04298 6.20418 6.23148 6.20418C6.23148 6.02214 6.23148 5.88239 6.23148 5.74222C6.23148 4.38737 6.22785 3.03293 6.23268 1.67808C6.23631 0.661539 6.89483 0.00545951 7.91745 0.00344576C9.87728 -0.000984487 11.8372 0.00102926 13.797 0.00304301C14.2872 0.00344576 14.5583 0.226569 14.5506 0.609181C14.5433 0.97971 14.2872 1.18471 13.8119 1.18511C11.8915 1.18713 9.97112 1.18551 8.05076 1.18632C7.50743 1.18673 7.4156 1.28097 7.4152 1.83434C7.4144 2.85693 7.4148 3.87951 7.4148 4.92505C15.9453 4.92505 24.4368 4.92505 32.9927 4.92505C32.9927 4.70716 32.9927 4.49048 32.9927 4.2734C32.9927 3.45783 32.9935 2.64226 32.9924 1.8271C32.9916 1.28338 32.8953 1.18632 32.3492 1.18632C27.2719 1.18592 22.195 1.18592 17.1178 1.18592C16.9861 1.18592 16.854 1.19196 16.7235 1.18189C16.3764 1.15531 16.1524 0.925742 16.1495 0.602334C16.1467 0.284162 16.3711 0.0429152 16.7134 0.00747326C16.8306 -0.00460923 16.9499 0.00223751 17.0682 0.00223751C22.1584 0.00223751 27.2489 0.00183476 32.3391 0.00223751C33.5687 0.00223751 34.1765 0.610792 34.1769 1.8424C34.1777 3.27539 34.1769 4.70796 34.1769 6.18444C34.3368 6.1917 34.4762 6.20337 34.6155 6.20337C35.9572 6.20458 37.3 6.2356 38.6399 6.1929C39.4922 6.16551 40.0907 6.44905 40.4081 7.25656C40.4081 14.3063 40.4081 21.3564 40.4081 28.4066ZM32.9932 26.2659C32.9932 26.0867 32.9932 25.9442 32.9932 25.8016C32.9932 24.0392 32.9916 22.2771 32.9943 20.5147C32.9951 19.9855 33.3009 19.6867 33.7294 19.795C34.0851 19.8848 34.1797 20.1498 34.1789 20.4865C34.1749 22.2751 34.1769 24.0637 34.1769 25.8523C34.1769 25.9901 34.1769 26.1278 34.1769 26.2563C35.2349 26.2563 36.229 26.2563 37.2311 26.2563C37.2311 20.6218 37.2311 15.0123 37.2311 9.39193C36.2084 9.39193 35.2067 9.39193 34.1769 9.39193C34.1769 9.56595 34.1769 9.70855 34.1769 9.85105C34.1769 12.3369 34.1769 14.8222 34.1765 17.308C34.1765 17.4264 34.1874 17.5468 34.1681 17.6624C34.1169 17.9742 33.9292 18.1582 33.6102 18.1719C33.2892 18.1856 33.0874 18.0092 33.0129 17.7075C32.9791 17.5702 32.9935 17.4199 32.9935 17.2757C32.9927 13.7248 32.9927 10.174 32.9927 6.62304C32.9927 6.46999 32.9927 6.31655 32.9927 6.16028C24.4433 6.16028 15.9429 6.16028 7.43896 6.16028C7.43896 12.8761 7.43896 19.563 7.43896 26.2656C15.9546 26.2659 24.4465 26.2659 32.9932 26.2659ZM34.1918 8.17765C35.2761 8.17765 36.3132 8.17081 37.3503 8.18007C38.0471 8.18651 38.4325 8.56752 38.4329 9.25337C38.4362 14.9608 38.4362 20.6685 38.4333 26.3759C38.4329 27.084 38.0427 27.4645 37.3257 27.4645C25.9102 27.4661 14.495 27.4661 3.07943 27.4645C2.36735 27.4645 1.97466 27.0787 1.97425 26.3727C1.97184 20.6654 1.97143 14.9576 1.97466 9.25014C1.97506 8.58081 2.35567 8.19014 3.02104 8.18128C3.94136 8.1688 4.86207 8.17765 5.78279 8.17725C5.92296 8.17725 6.06352 8.17725 6.20811 8.17725C6.20811 7.89049 6.20811 7.65972 6.20811 7.41967C6.13763 7.4076 6.08769 7.39149 6.03774 7.39108C4.53865 7.38907 3.03916 7.39551 1.54007 7.38343C1.18241 7.38061 1.18121 7.584 1.18121 7.84337C1.18403 14.4976 1.18564 21.1522 1.17758 27.8065C1.17718 28.146 1.26981 28.2615 1.62224 28.2612C14.0109 28.2531 26.3996 28.2531 38.7882 28.2612C39.1442 28.2615 39.2304 28.1392 39.2299 27.8032C39.222 21.149 39.222 14.4944 39.2299 7.84015C39.2304 7.50143 39.1369 7.37699 38.7849 7.38102C37.3648 7.39672 35.9442 7.38705 34.5241 7.38907C34.4125 7.38907 34.3013 7.4092 34.1914 7.41967C34.1918 7.68227 34.1918 7.90297 34.1918 8.17765ZM3.18093 9.38025C3.18093 15.0172 3.18093 20.6347 3.18093 26.2499C4.20798 26.2499 5.21046 26.2499 6.2061 26.2499C6.2061 20.6101 6.2061 15.0026 6.2061 9.38025C5.18711 9.38025 4.19389 9.38025 3.18093 9.38025ZM17.5814 29.4545C17.5814 30.6701 17.5814 31.8465 17.5814 33.043C19.3394 33.043 21.077 33.043 22.8105 33.043C22.8105 31.8327 22.8105 30.6482 22.8105 29.4545C21.0577 29.4545 19.3423 29.4545 17.5814 29.4545Z" fill="white"/>
<path d="M9.20638 3.60946C8.89948 3.61831 8.62399 3.36297 8.60466 3.05205C8.58412 2.72219 8.8435 2.44269 9.17737 2.43503C9.49678 2.42779 9.76177 2.66903 9.78071 2.98318C9.7993 3.30538 9.52937 3.60019 9.20638 3.60946Z" fill="white"/>
<path d="M31.8047 3.01261C31.8067 3.33884 31.524 3.61875 31.2018 3.60908C30.8941 3.60022 30.6306 3.33118 30.627 3.02228C30.623 2.69444 30.8976 2.42701 31.2315 2.43467C31.5493 2.44232 31.8027 2.69726 31.8047 3.01261Z" fill="white"/>
<path d="M10.9734 2.43564C11.2973 2.43886 11.5401 2.68011 11.5466 3.00472C11.553 3.33659 11.2836 3.61368 10.9593 3.60885C10.6517 3.60402 10.3874 3.33941 10.381 3.02929C10.3733 2.69541 10.636 2.43241 10.9734 2.43564Z" fill="white"/>
<path d="M20.2024 24.3849C17.427 24.3849 14.6519 24.3854 11.8765 24.3846C10.8329 24.3841 10.3036 23.8574 10.2989 22.807C10.2944 21.8073 10.2928 20.8077 10.2992 19.8081C10.306 18.8076 10.8418 18.272 11.8378 18.2716C17.4148 18.2696 22.9915 18.2696 28.5686 18.2716C29.563 18.272 30.0995 18.8084 30.1064 19.8093C30.1136 20.8089 30.112 21.8085 30.1068 22.8082C30.1016 23.8586 29.5723 24.3846 28.528 24.3846C25.7529 24.3854 22.9774 24.3849 20.2024 24.3849ZM24.5575 23.2009C24.5575 21.9346 24.5575 20.7191 24.5575 19.4835C24.4729 19.4722 24.4105 19.4569 24.3481 19.4569C20.1831 19.4553 16.0185 19.4573 11.8535 19.4505C11.5454 19.45 11.4769 19.5898 11.4793 19.86C11.4878 20.8057 11.4994 21.7522 11.4745 22.6974C11.4641 23.0957 11.5908 23.2101 11.9904 23.2089C16.037 23.1952 20.0836 23.2004 24.1301 23.2004C24.2599 23.2009 24.3891 23.2009 24.5575 23.2009ZM25.8008 19.4597C25.8008 20.7272 25.8008 21.9507 25.8008 23.2001C26.7663 23.2001 27.6983 23.2085 28.6298 23.1876C28.7285 23.1852 28.9061 23.012 28.9077 22.9153C28.9275 21.8504 28.925 20.7847 28.9093 19.7199C28.9082 19.6321 28.7656 19.4722 28.6862 19.471C27.7309 19.4537 26.7747 19.4597 25.8008 19.4597Z" fill="white"/>
<path d="M20.2611 7.52161C22.9564 7.57839 25.1293 9.80725 25.0677 12.4521C25.0048 15.1472 22.7634 17.3237 20.1277 17.2488C17.424 17.1719 15.2676 14.9414 15.3417 12.2995C15.417 9.61635 17.6306 7.46644 20.2611 7.52161ZM18.19 13.9942C17.405 12.5592 17.5303 11.359 18.5251 10.4766C19.4076 9.69402 20.7367 9.63125 21.6953 10.328C22.1693 10.6723 22.4912 11.127 22.6487 11.6905C22.8786 12.5149 22.699 13.2728 22.204 13.9878C22.4968 14.2306 22.7683 14.4557 23.0405 14.6813C24.2396 13.5005 24.1626 11.1746 22.8234 9.81121C21.3929 8.3545 19.0709 8.34241 17.6145 9.78382C16.2499 11.1343 16.1585 13.4702 17.3773 14.691C17.6447 14.4618 17.9121 14.2322 18.19 13.9942ZM20.2167 11.0331C19.4576 11.0279 18.8603 11.6099 18.8514 12.3635C18.8425 13.1234 19.4213 13.7259 20.1721 13.7389C20.949 13.7522 21.5559 13.1601 21.5572 12.3884C21.5584 11.6305 20.9727 11.0384 20.2167 11.0331ZM18.3198 15.5133C19.4805 16.2363 21.1206 16.2222 22.0364 15.515C21.9406 15.395 21.8504 15.2697 21.7473 15.1558C21.4775 14.8577 21.1987 14.7336 20.7497 14.8424C20.3372 14.9427 19.8736 14.8247 19.4325 14.8158C19.2884 14.813 19.1092 14.8049 19.0056 14.8806C18.7684 15.0542 18.5686 15.2778 18.3198 15.5133Z" fill="white"/>
<path d="M13.8071 21.3197C13.8107 21.6446 13.5284 21.9271 13.2066 21.9198C12.8997 21.913 12.6343 21.6446 12.629 21.3357C12.6234 21.0075 12.8969 20.7389 13.23 20.7445C13.5485 20.7505 13.8039 21.0047 13.8071 21.3197Z" fill="white"/>
<path d="M14.5254 21.2796C14.5528 20.9518 14.8476 20.7125 15.1811 20.7476C15.4932 20.7806 15.7284 21.065 15.7002 21.3758C15.6724 21.686 15.3888 21.9357 15.0843 21.9187C14.7594 21.9007 14.4983 21.6027 14.5254 21.2796Z" fill="white"/>
<path d="M17.0133 20.7445C17.3323 20.7477 17.5889 20.9994 17.5954 21.3148C17.6017 21.6394 17.3218 21.9241 17 21.9201C16.6778 21.916 16.4044 21.6249 16.4185 21.3015C16.4321 20.9882 16.696 20.7412 17.0133 20.7445Z" fill="white"/>
<path d="M19.4906 21.3242C19.4918 21.6492 19.2066 21.9295 18.8852 21.9194C18.5763 21.9097 18.3149 21.6411 18.3125 21.331C18.3096 21.002 18.584 20.7365 18.9178 20.7446C19.2356 20.7531 19.4897 21.0096 19.4906 21.3242Z" fill="white"/>
<path d="M21.3851 21.3234C21.3867 21.6485 21.1024 21.9292 20.781 21.92C20.4729 21.9111 20.2103 21.6425 20.2071 21.3327C20.2034 21.0041 20.4777 20.7374 20.8112 20.7452C21.1294 20.7523 21.3835 21.0085 21.3851 21.3234Z" fill="white"/>
<path d="M23.2797 21.3242C23.2809 21.6492 22.9958 21.9295 22.6743 21.9194C22.3654 21.9097 22.104 21.6411 22.1016 21.331C22.0988 21.002 22.373 20.7365 22.707 20.7446C23.0248 20.7531 23.2784 21.0096 23.2797 21.3242Z" fill="white"/>
<path d="M26.8971 21.3754C26.7235 21.19 26.618 21.091 26.5285 20.979C26.3191 20.7165 26.3127 20.441 26.5451 20.1957C26.7779 19.9504 27.0739 19.929 27.3252 20.1381C27.6269 20.3886 27.9084 20.6709 28.159 20.9727C28.3696 21.226 28.3301 21.5155 28.1001 21.7572C27.8742 21.9952 27.6451 22.2316 27.4033 22.4539C27.1267 22.7085 26.7928 22.7101 26.5575 22.4793C26.3155 22.2416 26.3107 21.9151 26.5624 21.6336C26.6489 21.5373 26.7703 21.4716 26.8971 21.3754Z" fill="white"/>
</g>
</g>
<defs>
<clipPath id="clip0_43_5105">
<rect width="40.4082" height="37.7143" fill="white"/>
</clipPath>
</defs>
</svg>
