<svg width="37" height="38" viewBox="0 0 37 38" fill="none" xmlns="http://www.w3.org/2000/svg">
<g clip-path="url(#clip0_43_5064)">
<mask id="mask0_43_5064" style="mask-type:luminance" maskUnits="userSpaceOnUse" x="0" y="-1" width="36" height="39">
<path d="M35.9359 -0.00012207H0.0175781V37.7142H35.9359V-0.00012207Z" fill="white"/>
</mask>
<g mask="url(#mask0_43_5064)">
<path d="M1.0248 37.7142C0.269268 37.4258 0.00913884 36.865 0.0177858 36.0719C0.044087 33.7261 0.0271533 31.3799 0.0271533 29.0338C0.0271533 27.5731 0.307819 27.2649 1.78321 27.1526C1.78897 27.0187 1.7969 26.8784 1.80122 26.738C1.8304 25.7944 1.80194 24.8442 1.90318 23.9081C2.01451 22.8801 2.53513 22.0157 3.21896 21.2454C3.34795 21.1003 3.44342 20.8669 3.44414 20.674C3.45639 16.1417 3.45351 11.6094 3.45387 7.07668C3.45387 6.19453 3.77056 5.87249 4.63778 5.87178C5.97122 5.87105 7.30428 5.87033 8.63772 5.87213C9.09816 5.87286 9.34932 6.07295 9.34717 6.42791C9.34465 6.78034 9.09277 6.97609 8.63016 6.97645C7.41922 6.9779 6.20829 6.97681 4.99699 6.97681C4.86476 6.97681 4.73254 6.97681 4.57761 6.97681C4.57761 11.3869 4.57761 15.7665 4.57761 20.1859C4.66697 20.1555 4.75343 20.1335 4.83378 20.0976C6.97894 19.1409 9.35615 19.6555 10.9079 21.431C11.0737 21.6206 11.2393 21.6756 11.4743 21.6749C13.3701 21.668 15.2663 21.6701 17.1622 21.673C17.32 21.6734 17.4843 21.6753 17.6334 21.7183C17.9044 21.796 18.024 22.0049 18.0009 22.2816C17.979 22.5436 17.832 22.7144 17.57 22.7586C17.4385 22.781 17.302 22.7759 17.1676 22.7759C15.5286 22.7771 13.8893 22.7766 12.2504 22.7766C12.1167 22.7766 11.983 22.7766 11.8245 22.7766C11.9401 23.2868 12.0382 23.7728 12.1729 24.2482C12.1909 24.3123 12.3934 24.3546 12.5109 24.3553C13.7953 24.3629 15.0797 24.3601 16.3641 24.3601C18.4315 24.3601 20.4988 24.3597 22.5658 24.3608C22.7002 24.3608 22.8703 24.3191 22.9614 24.3847C23.134 24.5084 23.3621 24.6857 23.3789 24.859C23.3959 25.0319 23.2122 25.2617 23.0576 25.3999C22.9614 25.4857 22.7557 25.4633 22.599 25.4633C19.2839 25.4662 15.9689 25.4655 12.6543 25.4655C12.5109 25.4655 12.3671 25.4655 12.2042 25.4655C12.2042 25.9995 12.2042 26.4959 12.2042 27.0322C12.3628 27.0322 12.5058 27.0322 12.6491 27.0322C15.9519 27.0322 19.2547 27.0322 22.5575 27.0322C22.6678 27.0322 22.7787 27.0249 22.8876 27.0369C23.2017 27.0716 23.4154 27.3054 23.4099 27.5974C23.4042 27.8897 23.1852 28.109 22.8663 28.1336C22.7568 28.1423 22.6461 28.1376 22.5363 28.1376C19.833 28.1376 17.1298 28.1376 14.4261 28.1376C14.2809 28.1376 14.1361 28.1376 13.9509 28.1376C13.9509 28.6713 13.9509 29.1815 13.9509 29.6916C13.9509 29.8266 13.9556 29.9623 13.9484 30.0969C13.93 30.4479 13.7192 30.665 13.4043 30.665C13.096 30.665 12.8654 30.4439 12.8553 30.0966C12.8405 29.6055 12.8419 29.1138 12.8534 28.6228C12.8593 28.3721 12.7735 28.2751 12.5144 28.2754C8.83263 28.2812 5.15047 28.2812 1.46867 28.2754C1.20639 28.2751 1.12712 28.3844 1.12748 28.6272C1.13072 31.1697 1.13144 33.7123 1.12639 36.255C1.12604 36.5285 1.23665 36.6124 1.50182 36.6121C5.15912 36.6059 8.81679 36.6052 12.4741 36.6128C12.7634 36.6135 12.8582 36.5173 12.855 36.2293C12.8427 35.1485 12.8498 34.0676 12.8502 32.9865C12.8502 32.8761 12.843 32.764 12.8582 32.6554C12.9021 32.3418 13.1413 32.1355 13.4385 32.1619C13.7513 32.1897 13.9321 32.371 13.9452 32.6866C13.9588 33.0162 13.948 33.3469 13.948 33.7051C18.7471 33.7051 23.522 33.7051 28.3254 33.7051C28.3254 29.2712 28.3254 24.8336 28.3254 20.3237C27.5674 20.868 26.9329 20.5293 26.3287 20.0842C25.2157 19.2654 24.1169 18.4271 23.0014 17.6115C22.8584 17.5069 22.6529 17.4399 22.4757 17.4389C20.2127 17.4276 17.9498 17.4324 15.6868 17.4291C15.5301 17.4287 15.3643 17.4233 15.2184 17.3738C14.9521 17.2836 14.8441 17.0687 14.8794 16.7926C14.9129 16.5292 15.0721 16.3733 15.3326 16.336C15.4529 16.319 15.5769 16.3258 15.6991 16.3258C17.5585 16.3255 19.4176 16.3255 21.277 16.3255C21.4068 16.3255 21.5364 16.3255 21.7094 16.3255C21.3477 15.7961 21.0302 15.3062 20.6797 14.8416C20.6152 14.7562 20.417 14.7461 20.2801 14.7457C16.9896 14.7407 13.699 14.7421 10.4086 14.7414C10.2741 14.7414 10.1387 14.7443 10.0054 14.7295C9.70779 14.6969 9.53699 14.5221 9.52047 14.2247C9.50278 13.9081 9.66891 13.7127 9.97583 13.6544C10.1063 13.6298 10.2435 13.6367 10.3779 13.6367C13.4483 13.636 16.5187 13.636 19.5887 13.636C19.7304 13.636 19.8715 13.636 20.0369 13.636C19.8719 13.1338 19.7401 12.6757 19.5621 12.2361C19.5246 12.1434 19.3189 12.071 19.1902 12.0707C16.2423 12.0617 13.2945 12.0639 10.3462 12.0635C10.2363 12.0635 10.1246 12.0728 10.0161 12.058C9.70815 12.0164 9.52514 11.8377 9.51895 11.5219C9.51284 11.2045 9.69369 11.0207 9.99747 10.9675C10.1164 10.9465 10.2414 10.9581 10.3638 10.9581C13.1896 10.9577 16.0151 10.9577 18.8407 10.9577C18.9745 10.9577 19.1077 10.9577 19.2183 10.9577C19.1668 9.63192 19.1157 8.32826 19.0631 6.97501C18.9481 6.97501 18.818 6.97501 18.688 6.97501C16.3515 6.97501 14.0154 6.97501 11.6789 6.97501C11.5687 6.97501 11.4581 6.98188 11.3489 6.97066C11.034 6.93846 10.8193 6.70833 10.8347 6.40982C10.851 6.09539 11.0282 5.91592 11.337 5.87611C11.4454 5.86201 11.5568 5.86996 11.667 5.86996C13.9912 5.8696 16.3152 5.8696 18.6393 5.8696C18.7727 5.8696 18.9059 5.8696 19.1048 5.8696C19.1048 5.58809 19.1135 5.32468 19.103 5.06199C19.0757 4.37305 19.3671 3.90376 19.9911 3.59512C22.2588 2.47307 24.52 1.33836 26.7754 0.192071C27.2921 -0.0706211 27.7622 -0.0651935 28.2746 0.194965C30.521 1.33474 32.771 2.46655 35.029 3.58353C35.6494 3.89037 35.9455 4.347 35.9358 5.04028C35.9153 6.47713 35.9416 7.91469 35.9004 9.35077C35.8007 12.8346 34.344 15.6623 31.7056 17.8908C31.0982 18.4039 30.463 18.8866 29.8112 19.3414C29.5338 19.535 29.4474 19.7361 29.4481 20.0611C29.4578 24.5811 29.4556 29.1015 29.4513 33.6215C29.4509 33.839 29.4463 34.0731 29.3699 34.271C29.203 34.7027 28.8395 34.8405 28.3964 34.8394C25.9255 34.8351 23.4546 34.8373 20.9837 34.8373C18.782 34.8373 16.5803 34.8373 14.3783 34.8373C14.2471 34.8373 14.116 34.8373 13.9506 34.8373C13.9506 35.2671 13.9224 35.6597 13.9563 36.0469C14.0259 36.8419 13.7275 37.4005 12.9889 37.7117C9.00091 37.7142 5.01284 37.7142 1.0248 37.7142ZM20.2059 7.45515C20.2084 7.45515 20.2109 7.45515 20.2135 7.45515C20.2135 7.95847 20.2052 8.46214 20.2149 8.96509C20.2575 11.139 20.7932 13.1591 22.0837 14.94C23.481 16.8676 25.3854 18.1948 27.3688 19.425C27.448 19.4742 27.6145 19.463 27.6981 19.4112C29.3688 18.38 30.9746 17.2634 32.2879 15.7781C33.6757 14.2085 34.5551 12.3848 34.7065 10.2901C34.8344 8.51822 34.8005 6.73438 34.8192 4.95561C34.8203 4.83838 34.6852 4.66795 34.5696 4.60933C32.304 3.45834 30.0335 2.31712 27.7572 1.18784C27.6293 1.12452 27.416 1.12452 27.2881 1.18784C25.0223 2.31133 22.7647 3.45219 20.5006 4.57967C20.283 4.68785 20.1977 4.81884 20.2012 5.06127C20.2135 5.8591 20.2059 6.65731 20.2059 7.45515ZM11.0812 27.1588C11.0812 26.3382 11.0924 25.5534 11.0791 24.7689C11.0452 22.7716 9.58279 21.0883 7.62566 20.7786C5.6819 20.471 3.79002 21.6068 3.13646 23.4876C2.7214 24.6817 2.9754 25.917 2.89361 27.148C3.28562 27.148 3.63005 27.148 4.02061 27.148C4.02061 26.2756 3.98097 25.4275 4.0289 24.5847C4.13013 22.7908 5.90132 21.4993 7.64476 21.9115C9.02686 22.2383 9.96397 23.4059 9.98014 24.8347C9.98885 25.6044 9.98157 26.3744 9.98157 27.1592C10.3617 27.1588 10.699 27.1588 11.0812 27.1588ZM8.88128 27.1574C8.88128 27.0285 8.88128 26.9428 8.88128 26.8574C8.88055 26.1583 8.89281 25.4585 8.87551 24.7598C8.85281 23.8408 8.13403 23.0639 7.24267 22.9648C6.26161 22.8559 5.30648 23.4301 5.18506 24.3752C5.06833 25.2849 5.15984 26.2216 5.15984 27.1577C6.38699 27.1574 7.61522 27.1574 8.88128 27.1574Z" fill="white"/>
<path d="M16.4359 20.1021C14.4068 20.1021 12.3776 20.1021 10.3488 20.1021C10.2389 20.1021 10.1276 20.11 10.0192 20.0963C9.70963 20.0576 9.52806 19.8792 9.5198 19.5637C9.51154 19.2457 9.69454 19.0654 9.995 19.0057C10.0894 18.987 10.1899 18.997 10.2876 18.997C14.4071 18.9963 18.5263 18.9963 22.6455 18.997C22.755 18.997 22.8696 18.9888 22.9734 19.0159C23.254 19.0897 23.4194 19.2792 23.4047 19.5753C23.3902 19.8688 23.2148 20.0464 22.9254 20.0938C22.818 20.1115 22.7061 20.1018 22.5961 20.1018C20.5429 20.1021 18.4895 20.1021 16.4359 20.1021Z" fill="white"/>
<path d="M21.1364 22.7766C20.5992 22.7766 20.0621 22.7824 19.5252 22.7748C19.1364 22.7694 18.9164 22.5733 18.9066 22.2483C18.8965 21.9104 19.1242 21.6803 19.5252 21.6762C20.6115 21.6662 21.6978 21.6665 22.784 21.6767C23.1803 21.6803 23.4185 21.918 23.4077 22.248C23.3973 22.5664 23.1674 22.7694 22.7844 22.7748C22.2353 22.7824 21.6858 22.7766 21.1364 22.7766Z" fill="white"/>
<path d="M11.6305 16.3274C12.1302 16.3274 12.6303 16.3227 13.13 16.3289C13.5181 16.3335 13.7379 16.5261 13.7494 16.852C13.7613 17.1875 13.5271 17.4248 13.1351 17.4284C12.1353 17.4378 11.1355 17.4378 10.1361 17.4288C9.74122 17.4252 9.50919 17.1943 9.51781 16.8575C9.52643 16.5184 9.7502 16.3321 10.1678 16.3281C10.6549 16.3237 11.1427 16.3274 11.6305 16.3274Z" fill="white"/>
<path d="M21.9238 9.53301C21.918 6.51496 24.0463 4.14458 27.0183 3.84825C29.6981 3.58121 32.2727 5.35637 32.9198 8.19242C32.9548 8.34475 32.976 8.51409 32.9468 8.66461C32.8968 8.92224 32.709 9.06006 32.4468 9.06733C32.1676 9.07496 31.9857 8.93345 31.9024 8.66606C31.7932 8.3158 31.7136 7.95288 31.5716 7.61674C30.7639 5.70517 28.7138 4.62221 26.6526 5.00213C24.6455 5.37192 23.1102 7.15576 23.0295 9.21172C22.943 11.4157 24.3983 13.3157 26.5456 13.8023C28.6277 14.2741 30.7829 13.1326 31.6242 11.1117C31.6574 11.0324 31.6812 10.9485 31.7219 10.8736C31.8736 10.5983 32.1114 10.4977 32.4028 10.5993C32.704 10.7043 32.8197 10.9554 32.7321 11.2485C32.6453 11.5394 32.5167 11.8227 32.3719 12.0908C31.2308 14.2021 28.8176 15.3596 26.4894 14.9214C24.1014 14.4721 22.265 12.529 21.9598 10.1224C21.9299 9.89085 21.9307 9.65603 21.9238 9.53301Z" fill="white"/>
<path d="M27.2207 10.1035C27.9633 9.35258 28.6486 8.65175 29.3432 7.96029C29.6458 7.65889 30.0227 7.66937 30.2266 7.97621C30.3999 8.23673 30.36 8.49436 30.1448 8.71218C29.318 9.54905 28.4904 10.386 27.6538 11.2132C27.3652 11.4983 27.0817 11.4875 26.7837 11.1951C26.2674 10.6888 25.7579 10.1755 25.2528 9.65798C24.9696 9.36785 24.956 9.0541 25.1963 8.8153C25.429 8.58409 25.754 8.60399 26.0376 8.88694C26.4259 9.27482 26.8039 9.67396 27.2207 10.1035Z" fill="white"/>
</g>
</g>
<defs>
<clipPath id="clip0_43_5064">
<rect width="36.8163" height="37.7143" fill="white"/>
</clipPath>
</defs>
</svg>
