<svg width="28" height="46" viewBox="0 0 28 46" fill="none" xmlns="http://www.w3.org/2000/svg">
<g clip-path="url(#clip0_43_4972)">
<path d="M13.6188 0C13.9851 0.190811 14.1513 0.482894 14.1485 0.904978C14.1374 2.50353 14.1444 4.10209 14.1427 5.70064C14.1427 5.80455 14.141 5.91204 14.1156 6.0114C14.0177 6.3947 13.7683 6.60323 13.368 6.57521C12.9679 6.5472 12.7192 6.30875 12.7163 5.91228C12.7032 4.16457 12.6945 2.41615 12.7317 0.669157C12.7365 0.443152 13.0168 0.222893 13.1694 0C13.3191 0 13.4691 0 13.6188 0Z" fill="#004884"/>
<path d="M11.2511 36.1644C9.60907 34.0846 7.98073 32.0711 6.40822 30.0151C5.16415 28.3883 3.96224 26.727 2.8001 25.0408C2.48962 24.5905 2.30731 24.0065 2.21748 23.4592C2.01936 22.2517 2.65277 21.362 3.86474 21.2332C5.70748 21.0374 7.45848 21.3208 8.85707 22.6915C9.48665 23.3084 10.0784 23.9637 10.7571 24.6747C10.7571 24.4643 10.7571 24.3123 10.7571 24.1602C10.7571 20.1034 10.7547 16.0466 10.7588 11.9897C10.7602 10.6349 11.5168 9.58891 12.7206 9.24895C14.4119 8.77132 16.1095 10.0014 16.1371 11.7563C16.1629 13.4025 16.1442 15.0497 16.145 16.6963C16.145 16.8601 16.145 17.0241 16.145 17.2309C16.9549 16.9111 17.7412 16.8385 18.5229 17.1967C19.2895 17.5479 19.7583 18.1637 20.0214 18.9437C21.8982 18.3552 22.8322 18.6772 23.8636 20.2681C24.4428 19.9801 25.0441 19.7927 25.7121 19.9121C27.0107 20.1444 27.9728 21.1654 27.9843 22.4829C28.0131 25.7461 27.9997 29.0095 27.9879 32.273C27.9872 32.5004 27.8866 32.7381 27.7915 32.9529C27.4048 33.8263 27.0024 34.6927 26.5901 35.596C27.2937 35.8867 27.8032 36.3351 27.9455 37.0935C27.981 37.2829 27.9949 37.4792 27.9951 37.6722C27.9985 39.7381 27.999 41.8037 27.9968 43.8696C27.9954 45.2374 27.2252 45.9989 25.8452 45.9992C21.5163 46.0001 17.1871 46.0004 12.8581 45.9992C11.5036 45.9987 10.742 45.2398 10.7406 43.8897C10.7387 41.8688 10.7482 39.8477 10.7351 37.8271C10.7307 37.2266 10.795 36.6616 11.2511 36.1644ZM12.1955 19.2255C12.1955 21.5758 12.1955 23.9263 12.1955 26.2767C12.1955 26.3964 12.1916 26.5163 12.1957 26.636C12.2086 27.0009 12.0824 27.2822 11.7209 27.4151C11.3548 27.5496 11.0832 27.3947 10.8568 27.1165C10.7717 27.0121 10.6883 26.9061 10.5995 26.8048C9.73987 25.8268 8.88677 24.8431 8.01715 23.8742C7.0251 22.7688 5.70078 22.5789 4.32399 22.6235C3.60457 22.6467 3.43232 22.9172 3.72267 23.5914C3.99818 24.2316 4.31944 24.8751 4.74059 25.4258C7.28599 28.755 9.86397 32.0597 12.4425 35.3635C12.5313 35.4775 12.74 35.5532 12.8931 35.5534C16.8179 35.5637 20.7427 35.5577 24.6675 35.569C24.9608 35.5697 25.0858 35.4567 25.1936 35.2098C25.5834 34.3199 26.0029 33.4427 26.3867 32.5504C26.489 32.3125 26.5505 32.0369 26.5515 31.7781C26.5628 28.8139 26.5592 25.8498 26.5584 22.8856C26.5582 21.9033 26.0752 21.306 25.2899 21.312C24.508 21.3179 24.0475 21.9069 24.0468 22.9021C24.0463 23.8902 24.0538 24.8782 24.0427 25.8663C24.0377 26.3253 23.7407 26.6341 23.3394 26.6427C22.9197 26.652 22.6255 26.3341 22.6092 25.8507C22.6051 25.731 22.6082 25.6113 22.6082 25.4914C22.6082 24.144 22.6125 22.7966 22.6061 21.4494C22.6027 20.7498 22.2218 20.2425 21.6313 20.1192C20.8086 19.9476 20.1115 20.5071 20.0995 21.378C20.0842 22.5006 20.0988 23.6235 20.0935 24.7463C20.0911 25.2673 19.8003 25.5982 19.37 25.5936C18.9419 25.5888 18.6599 25.258 18.6585 24.7327C18.6544 23.1758 18.6571 21.6189 18.6568 20.0618C18.6568 19.927 18.6602 19.7922 18.6549 19.6576C18.6266 18.9403 18.1283 18.4218 17.4501 18.4017C16.7444 18.3806 16.2022 18.8817 16.1502 19.6095C16.1385 19.7735 16.1452 19.9387 16.1452 20.1034C16.1445 21.316 16.1509 22.5287 16.1399 23.7413C16.1361 24.1744 15.8429 24.4638 15.4497 24.4744C15.0556 24.4849 14.7533 24.205 14.7119 23.7817C14.6989 23.6481 14.7066 23.5124 14.7066 23.3778C14.7064 19.665 14.7066 15.9525 14.7061 12.2397C14.7061 12.075 14.7114 11.9098 14.6989 11.7458C14.6522 11.1279 14.1781 10.6445 13.5787 10.5961C12.9338 10.5439 12.3921 10.9234 12.2489 11.5507C12.2029 11.752 12.1979 11.9658 12.1976 12.1738C12.1943 14.5246 12.1955 16.8752 12.1955 19.2255ZM19.4143 36.9992C17.2419 36.9992 15.0698 36.998 12.8974 36.9999C12.2906 37.0004 12.1792 37.1089 12.1787 37.6966C12.177 39.7477 12.1773 41.7989 12.1787 43.85C12.1792 44.438 12.3013 44.5615 12.8866 44.5617C17.2012 44.5627 21.516 44.5627 25.8306 44.5617C26.4284 44.5615 26.558 44.4289 26.5584 43.8165C26.5596 41.7953 26.5596 39.774 26.5584 37.7529C26.558 37.1141 26.443 36.9999 25.7966 36.9994C23.6693 36.9985 21.5417 36.9992 19.4143 36.9992Z" fill="#004884"/>
<path d="M4.55982 13.1284C3.55819 13.1284 2.55656 13.1311 1.55493 13.1275C1.01902 13.1256 0.697286 12.8627 0.687703 12.4329C0.677881 11.9967 1.02453 11.6946 1.57123 11.6934C3.57448 11.6884 5.57774 11.6886 7.58099 11.6932C8.13056 11.6944 8.47697 11.9903 8.4717 12.4262C8.46619 12.8675 8.13607 13.1265 7.56494 13.128C6.56307 13.1301 5.56145 13.1284 4.55982 13.1284Z" fill="#004884"/>
<path d="M22.0697 12.0096C23.0282 12.0094 23.9869 12.0058 24.9455 12.0108C25.5149 12.0137 25.8438 12.2821 25.8422 12.7243C25.8405 13.1655 25.5075 13.4432 24.9416 13.4447C23.0244 13.4497 21.1071 13.4516 19.1901 13.4437C18.5581 13.4411 18.1935 13.0257 18.3511 12.5234C18.4738 12.132 18.7675 12.0077 19.1489 12.0089C20.1225 12.012 21.0961 12.0099 22.0697 12.0096Z" fill="#004884"/>
<path d="M4.93151 3.2627C5.20366 3.42861 5.41855 3.51073 5.56828 3.65844C6.84588 4.91847 8.11463 6.18735 9.37906 7.46055C9.73577 7.81966 9.74919 8.22427 9.44734 8.53096C9.15554 8.82711 8.71786 8.81658 8.37312 8.4747C7.08857 7.20055 5.81168 5.91849 4.53239 4.63908C4.30313 4.40972 4.16082 4.12482 4.33619 3.83393C4.46747 3.61655 4.71135 3.46691 4.93151 3.2627Z" fill="#004884"/>
<path d="M18.0784 8.81345C17.3918 8.7998 17.0585 8.21875 17.3362 7.74878C17.4107 7.62261 17.524 7.51727 17.6292 7.41193C18.77 6.26922 19.9127 5.12818 21.055 3.9869C21.0866 3.9553 21.1178 3.92274 21.1503 3.89185C21.5365 3.52436 21.9455 3.48653 22.2567 3.78867C22.5693 4.09224 22.5439 4.51744 22.1752 4.89427C21.7047 5.37501 21.2246 5.84665 20.7488 6.32237C20.0191 7.05161 19.2954 7.78709 18.5549 8.50509C18.3939 8.66118 18.172 8.75455 18.0784 8.81345Z" fill="#004884"/>
<path d="M14.5479 43.8725C13.6464 43.8691 12.9177 43.1334 12.9318 42.2409C12.9455 41.368 13.669 40.6462 14.541 40.6351C15.431 40.6239 16.1696 41.3582 16.1715 42.2562C16.1736 43.1633 15.4578 43.8758 14.5479 43.8725Z" fill="#004884"/>
</g>
<defs>
<clipPath id="clip0_43_4972">
<rect width="28" height="46" fill="white"/>
</clipPath>
</defs>
</svg>
