<svg width="43" height="42" viewBox="0 0 43 42" fill="none" xmlns="http://www.w3.org/2000/svg">
<g clip-path="url(#clip0_43_4983)">
<mask id="mask0_43_4983" style="mask-type:luminance" maskUnits="userSpaceOnUse" x="0" y="0" width="43" height="42">
<path d="M42.5098 0H0.509766V42H42.5098V0Z" fill="white"/>
</mask>
<g mask="url(#mask0_43_4983)">
<path d="M1.33455 0C1.46915 0.11501 1.61146 0.222389 1.73672 0.346121C3.35477 1.94754 4.97062 3.55115 6.58702 5.15475C6.66504 5.23215 6.748 5.30682 6.81118 5.39458C7.00513 5.66494 6.99359 5.94183 6.76448 6.1773C6.52164 6.42695 6.23044 6.44548 5.94584 6.23835C5.82497 6.1506 5.72333 6.03504 5.61674 5.9293C4.02891 4.35513 2.44163 2.78096 0.856 1.2057C0.375256 0.728217 0.393387 0.424611 0.921381 0C1.05929 0 1.19719 0 1.33455 0Z" fill="#004884"/>
<path d="M42.1001 -4.24444e-06C42.6264 0.424062 42.6451 0.730938 42.1655 1.20679C40.5408 2.82075 38.9145 4.43361 37.2877 6.04539C37.2003 6.13206 37.1124 6.22472 37.0075 6.28468C36.735 6.44003 36.4702 6.40078 36.2559 6.17785C36.0411 5.95437 36.0152 5.68946 36.1867 5.42783C36.2603 5.315 36.368 5.22342 36.4652 5.12695C38.0514 3.55169 39.6376 1.97697 41.2265 0.403894C41.3716 0.26054 41.5331 0.134084 41.6869 -0.000549316C41.8243 -4.24444e-06 41.9622 -4.24444e-06 42.1001 -4.24444e-06Z" fill="#004884"/>
<path d="M9.60294 0C9.75788 0.213123 9.97874 0.405534 10.0546 0.64373C10.2958 1.39702 10.4875 2.16612 10.6891 2.93194C10.8034 3.36637 10.6375 3.69068 10.2776 3.77517C9.90347 3.86238 9.62602 3.67869 9.4991 3.23718C9.28427 2.48935 9.09582 1.73388 8.86617 0.990941C8.73485 0.56633 8.82221 0.247463 9.18977 0.000545072C9.32768 0 9.46503 0 9.60294 0Z" fill="#004884"/>
<path d="M33.8303 0C34.1967 0.247463 34.2841 0.56742 34.1539 0.991487C33.9248 1.73497 33.7358 2.48989 33.5209 3.23773C33.3902 3.69286 33.0819 3.88309 32.7012 3.7659C32.3682 3.66343 32.221 3.34838 32.3309 2.93194C32.5331 2.16666 32.7243 1.39702 32.9649 0.64373C33.0413 0.405534 33.2621 0.213123 33.4165 0C33.5544 0 33.6923 0 33.8303 0Z" fill="#004884"/>
<path d="M28.2047 36.3269C27.8267 36.2609 27.4416 36.2211 27.0718 36.1241C26.0021 35.8434 25.0966 36.0919 24.3126 36.8659C22.6748 38.4832 20.3496 38.4843 18.7091 36.8681C17.9118 36.0827 16.9982 35.8461 15.9119 36.1372C13.7225 36.7237 11.6808 35.5436 11.0913 33.3617C10.8056 32.3031 10.1469 31.6365 9.08208 31.3427C6.80638 30.7153 5.66688 28.7574 6.2641 26.5068C6.54101 25.4636 6.30366 24.5718 5.53776 23.8017C3.87301 22.1283 3.87906 19.8684 5.54985 18.183C6.30201 17.4243 6.53991 16.5402 6.27014 15.5133C5.67017 13.2245 6.79319 11.2917 9.09911 10.6507C10.1458 10.3596 10.8007 9.69954 11.0853 8.659C11.6924 6.4411 13.7049 5.27683 15.9284 5.8666C17.0157 6.15494 17.9272 5.90312 18.7222 5.11821C20.3414 3.52006 22.6847 3.51952 24.2956 5.11658C25.0895 5.90421 26.0015 6.15439 27.0888 5.86714C29.3162 5.27792 31.3265 6.43947 31.9336 8.65737C32.2276 9.7317 32.9105 10.3918 33.9989 10.6681C36.0972 11.2007 37.3454 13.2354 36.7933 15.3122C36.4708 16.5244 36.7466 17.4826 37.635 18.364C39.0981 19.8155 39.0915 22.1959 37.6223 23.6485C36.7295 24.5315 36.4763 25.4968 36.7966 26.7047C37.3361 28.7405 36.1114 30.784 34.0599 31.3133C32.9028 31.6114 32.2105 32.2933 31.9067 33.438C31.4512 35.1533 29.9629 36.2784 28.2047 36.3269ZM28.1959 35.095C29.4299 35.0585 30.4029 34.2758 30.7496 33.0052C31.1557 31.5182 32.1029 30.5742 33.6017 30.1703C35.2164 29.7353 35.9845 28.413 35.5571 26.8012C35.1609 25.3093 35.5203 24.0246 36.6109 22.9323C37.774 21.7674 37.7778 20.2374 36.6175 19.0764C35.5131 17.9721 35.1615 16.6754 35.562 15.1688C35.9834 13.5859 35.2082 12.2663 33.6105 11.834C32.1133 11.4291 31.1595 10.4915 30.7518 9.00403C30.3128 7.40206 28.9832 6.64005 27.3569 7.06357C25.8526 7.45548 24.5576 7.099 23.4555 6.01867C22.2764 4.86366 20.7386 4.85985 19.57 6.01159C18.4574 7.10773 17.1487 7.45548 15.6306 7.05867C14.0351 6.64169 12.7061 7.40806 12.2693 8.99368C11.8605 10.479 10.9161 11.4252 9.41723 11.8302C7.80028 12.2674 7.03329 13.587 7.46019 15.1982C7.85138 16.6732 7.50854 17.953 6.43607 19.0388C5.23503 20.2549 5.23064 21.7451 6.42837 22.9535C7.50304 24.0377 7.85193 25.3159 7.46239 26.7914C7.03109 28.4255 7.80083 29.7315 9.4458 30.1784C10.91 30.5764 11.8495 31.5062 12.2539 32.9567C12.7154 34.6115 14.0203 35.361 15.701 34.9282C17.1553 34.5537 18.4239 34.8939 19.5008 35.9268C20.7925 37.1657 22.2369 37.1532 23.5385 35.9039C24.5906 34.8939 25.8405 34.5685 27.2668 34.9113C27.5751 34.9843 27.8866 35.0339 28.1959 35.095Z" fill="#004884"/>
<path d="M7.02921 36.2108C6.88362 36.4381 6.80835 36.6191 6.67923 36.7477C5.01009 38.4145 3.3349 40.0748 1.65807 41.7335C1.33006 42.0578 0.985021 42.0834 0.712508 41.8267C0.427358 41.558 0.450434 41.1999 0.791624 40.8603C2.45418 39.2065 4.12057 37.5566 5.78367 35.9034C6.00234 35.6859 6.25563 35.5142 6.54902 35.6886C6.73802 35.8009 6.86164 36.0217 7.02921 36.2108Z" fill="#004884"/>
<path d="M42.5069 41.2652C42.502 41.8316 42.0218 42.1314 41.624 41.9286C41.5053 41.8681 41.402 41.7694 41.3059 41.674C39.6686 40.053 38.0291 38.4341 36.4056 36.8006C36.2468 36.6408 36.1023 36.3857 36.0996 36.1732C36.0946 35.7328 36.6314 35.488 37.0171 35.7202C37.1209 35.7829 37.2083 35.8756 37.2957 35.9622C38.9225 37.574 40.5499 39.1852 42.1701 40.8036C42.3273 40.96 42.4349 41.1649 42.5069 41.2652Z" fill="#004884"/>
<path d="M9.59289 41.9951C9.03083 42.0016 8.71931 41.6457 8.81931 41.2505C9.04072 40.3778 9.28082 39.509 9.5341 38.6451C9.63904 38.2864 9.98024 38.1294 10.3187 38.2335C10.6275 38.3284 10.8033 38.6374 10.7115 38.9879C10.4901 39.8328 10.2736 40.6798 10.0061 41.5105C9.93518 41.7291 9.6852 41.891 9.59289 41.9951Z" fill="#004884"/>
<path d="M33.4361 41.9935C33.3438 41.8975 33.0911 41.7504 33.0252 41.5443C32.751 40.6869 32.5224 39.8148 32.2999 38.9422C32.2136 38.6037 32.3796 38.3415 32.7104 38.239C33.0384 38.1371 33.3527 38.2428 33.4548 38.5764C33.7345 39.4894 33.9894 40.4106 34.2131 41.3383C34.2966 41.6839 33.9492 42.0049 33.4361 41.9935Z" fill="#004884"/>
<path d="M1.26023 33.8354C0.810255 33.8201 0.594332 33.6484 0.530049 33.3306C0.468514 33.0248 0.606419 32.7588 0.894866 32.6722C1.80141 32.3996 2.7162 32.1511 3.63593 31.9249C3.95295 31.8469 4.20788 32.023 4.30568 32.3353C4.40183 32.6422 4.31776 32.9551 4.00295 33.0543C3.06124 33.3497 2.10469 33.5983 1.26023 33.8354Z" fill="#004884"/>
<path d="M1.2186 8.16516C1.71473 8.29816 2.28448 8.45078 2.85423 8.60395C3.19872 8.69661 3.54815 8.7751 3.88714 8.88629C4.25141 9.00566 4.41239 9.32181 4.31294 9.6603C4.22339 9.96608 3.90582 10.1563 3.56024 10.0669C2.69655 9.84344 1.83615 9.60579 0.978501 9.36051C0.644453 9.26512 0.472484 9.0182 0.530723 8.6759C0.584566 8.35757 0.805983 8.18478 1.2186 8.16516Z" fill="#004884"/>
<path d="M42.5009 33.0679C42.5185 33.5781 42.1878 33.903 41.801 33.812C40.8796 33.5945 39.9654 33.3454 39.0588 33.0745C38.7204 32.9731 38.616 32.6662 38.716 32.3392C38.8176 32.0061 39.0874 31.8448 39.4231 31.9287C40.3153 32.1517 41.2054 32.3871 42.0817 32.664C42.2768 32.7251 42.4108 32.9769 42.5009 33.0679Z" fill="#004884"/>
<path d="M41.7606 8.16571C42.2045 8.17934 42.4221 8.3494 42.488 8.66718C42.5517 8.97296 42.4133 9.24114 42.1259 9.32671C41.2057 9.60143 40.2777 9.85216 39.3442 10.0767C39.0459 10.1487 38.8047 9.96118 38.7135 9.66739C38.6184 9.36051 38.6976 9.04655 39.0124 8.94734C39.9546 8.65137 40.9112 8.40391 41.7606 8.16571Z" fill="#004884"/>
<path d="M7.87891 20.9558C7.96682 14.3981 12.7621 8.79145 19.2574 7.72474C19.4744 7.68931 19.6931 7.65443 19.9123 7.63699C20.3041 7.60592 20.5815 7.81141 20.6321 8.15372C20.6843 8.51019 20.4557 8.80399 20.0497 8.85631C18.7992 9.01711 17.5987 9.34415 16.4427 9.84671C11.7007 11.9109 8.6992 17.0269 9.24478 22.1277C9.85958 27.8755 14.0533 32.2323 19.82 33.1126C25.9653 34.0512 32.1128 29.8765 33.4979 23.8251C35.0775 16.9218 30.7497 10.3296 23.7462 8.97296C23.5165 8.92826 23.2841 8.89937 23.0523 8.86667C22.5765 8.79963 22.3116 8.53527 22.3583 8.17061C22.4072 7.79015 22.7254 7.58303 23.1913 7.64298C25.2571 7.90898 27.1938 8.55707 28.9151 9.72461C33.149 12.5966 35.2362 16.6089 35.0456 21.6857C34.7972 28.3018 29.4261 33.8092 22.788 34.3881C15.851 34.9936 9.63432 30.4477 8.22944 23.715C8.04044 22.8102 7.99209 21.8759 7.87891 20.9558Z" fill="#004884"/>
<path d="M19.52 20.7934C21.6215 18.7085 23.6791 16.6721 25.7301 14.6292C26.2548 14.1065 26.8696 13.8426 27.5982 14.0361C27.93 14.1244 28.2679 14.3049 28.5245 14.5311C29.0898 15.0298 29.6162 15.5738 30.1392 16.1172C30.9167 16.9261 30.9128 18.0364 30.1162 18.8355C28.4684 20.4871 26.8081 22.1256 25.1494 23.7662C24.8098 24.102 24.4412 24.1238 24.1742 23.8447C23.9049 23.5635 23.9423 23.2299 24.2972 22.8772C25.8933 21.2905 27.4921 19.7071 29.0893 18.1209C29.6052 17.6086 29.6046 17.324 29.0898 16.8095C28.6629 16.3827 28.2349 15.9564 27.8036 15.534C27.3504 15.0909 27.0224 15.0909 26.5702 15.5384C24.4351 17.6538 22.3023 19.7709 20.1683 21.8874C19.653 22.3981 19.4013 22.3997 18.8937 21.8972C18.1234 21.1346 17.3553 20.3693 16.5833 19.6079C16.1185 19.1495 15.8109 19.1478 15.3521 19.5992C14.8433 20.0995 14.3346 20.5999 13.8329 21.1074C13.4555 21.4895 13.4527 21.8312 13.8335 22.2111C15.2719 23.6452 16.7103 25.0793 18.1602 26.5014C18.8849 27.2122 19.9035 27.2051 20.6397 26.5014C21.1161 26.0463 21.5743 25.5732 22.0457 25.1126C22.3792 24.7861 22.7643 24.755 23.0248 25.0226C23.2753 25.2804 23.2462 25.6489 22.9336 25.9651C22.4413 26.4622 21.9523 26.9636 21.4408 27.4411C20.2744 28.5302 18.5201 28.5492 17.3685 27.4417C15.8449 25.9771 14.3505 24.4825 12.8638 22.9808C12.1056 22.215 12.1231 21.0997 12.8726 20.3246C13.4352 19.7431 14.0115 19.1735 14.5955 18.6126C15.4021 17.838 16.5317 17.8391 17.335 18.6186C18.0613 19.3233 18.7717 20.0467 19.52 20.7934Z" fill="#004884"/>
</g>
</g>
<defs>
<clipPath id="clip0_43_4983">
<rect width="43" height="42" fill="white"/>
</clipPath>
</defs>
</svg>
