<svg width="39" height="38" viewBox="0 0 39 38" fill="none" xmlns="http://www.w3.org/2000/svg">
<g clip-path="url(#clip0_43_5081)">
<mask id="mask0_43_5081" style="mask-type:luminance" maskUnits="userSpaceOnUse" x="0" y="-1" width="39" height="39">
<path d="M38.1186 -0.00012207H0.404297V37.7142H38.1186V-0.00012207Z" fill="white"/>
</mask>
<g mask="url(#mask0_43_5081)">
<path d="M26.3978 37.7142C26.2504 37.7142 26.1028 37.7142 25.9555 37.7142C25.9214 37.2859 25.8908 36.8573 25.8527 36.4295C25.6174 33.7879 25.38 31.1469 25.1445 28.5054C24.9373 26.182 24.7326 23.8583 24.5256 21.5347C24.2902 18.8933 24.0541 16.252 23.8169 13.6107C23.7203 12.5364 23.6197 11.4622 23.5207 10.3881C23.4978 10.3895 23.4752 10.3912 23.4524 10.3926C23.4524 19.4663 23.4524 28.5399 23.4524 37.6237C15.751 37.6237 8.07212 37.6237 0.404478 37.6237C0.404297 25.0584 0.404297 12.5243 0.404297 -0.00012207C8.10456 -0.00012207 15.7767 -0.00012207 23.4795 -0.00012207C23.4795 0.439183 23.4795 0.853297 23.4795 1.31762C27.274 0.980342 31.0337 0.645969 34.8346 0.308153C34.8807 0.835355 34.9219 1.32087 34.9661 1.80621C35.2765 5.20503 35.5903 8.60367 35.8973 12.0028C36.2287 15.671 36.5525 19.34 36.8824 23.0083C37.2221 26.7866 37.5634 30.565 37.9086 34.3427C37.9665 34.9763 38.0481 35.6076 38.1188 36.2398C38.1188 36.3627 38.1188 36.4856 38.1188 36.6085C38.0223 36.6266 37.9268 36.6529 37.8296 36.6616C34.6748 36.9412 31.5197 37.2167 28.3652 37.4992C27.7082 37.5581 27.0534 37.6419 26.3978 37.7142ZM12.5513 36.4198C15.8057 36.4198 19.0267 36.4198 22.2453 36.4198C22.2453 24.6715 22.2453 12.9559 22.2453 1.21939C19.0059 1.21939 15.7856 1.21939 12.5513 1.21939C12.5513 12.9641 12.5513 24.6802 12.5513 36.4198ZM27.0681 36.3943C30.3255 36.1041 33.5468 35.8172 36.7986 35.5276C35.7759 24.2119 34.7566 12.9365 33.7344 1.62679C30.4763 1.91713 27.2771 2.20238 24.046 2.49036C25.0535 13.794 26.0581 25.0636 27.0681 36.3943ZM11.2807 36.4298C11.2807 24.6788 11.2807 12.9461 11.2807 1.22681C8.03659 1.22681 4.82615 1.22681 1.61408 1.22681C1.61408 12.9774 1.61408 24.6921 1.61408 36.4298C4.84627 36.4298 8.05762 36.4298 11.2807 36.4298Z" fill="white"/>
<path d="M21.0092 19.4171C18.5896 19.4171 16.1983 19.4171 13.7773 19.4171C13.7773 13.7578 13.7773 8.10623 13.7773 2.43097C16.1806 2.43097 18.58 2.43097 21.0092 2.43097C21.0092 8.07959 21.0092 13.7302 21.0092 19.4171ZM14.9883 3.63978C14.9883 8.50349 14.9883 13.3351 14.9883 18.1781C16.6069 18.1781 18.2055 18.1781 19.8137 18.1781C19.8137 13.3204 19.8137 8.49062 19.8137 3.63978C18.2028 3.63978 16.612 3.63978 14.9883 3.63978Z" fill="white"/>
<path d="M21.0349 29.1662C21.0279 31.1628 19.3894 32.7926 17.3922 32.7895C15.4001 32.7865 13.7544 31.1437 13.752 29.156C13.7496 27.1637 15.4399 25.481 17.4205 25.5042C19.4151 25.5277 21.042 27.1759 21.0349 29.1662ZM17.3837 26.7279C16.0581 26.7366 14.9728 27.8247 14.9707 29.1475C14.9685 30.4799 16.0893 31.5997 17.4107 31.5853C18.7271 31.5707 19.8243 30.4694 19.8293 29.1573C19.8348 27.8274 18.7189 26.7192 17.3837 26.7279Z" fill="white"/>
<path d="M18.586 21.8428C16.9678 21.8428 15.3802 21.8428 13.7695 21.8428C13.7695 21.4499 13.7695 21.0753 13.7695 20.6677C15.3721 20.6677 16.9676 20.6677 18.586 20.6677C18.586 21.0539 18.586 21.4293 18.586 21.8428Z" fill="white"/>
<path d="M19.8535 20.6565C20.25 20.6565 20.6226 20.6565 21.0173 20.6565C21.0173 21.0521 21.0173 21.4266 21.0173 21.8312C20.6359 21.8312 20.2548 21.8312 19.8535 21.8312C19.8535 21.449 19.8535 21.0746 19.8535 20.6565Z" fill="white"/>
<path d="M32.6318 2.94391C33.1014 8.21919 33.566 13.4349 34.0335 18.6864C31.6067 18.9028 29.2144 19.1163 26.7699 19.3343C26.3014 14.0915 25.8344 8.86528 25.3633 3.59417C27.7834 3.37778 30.1854 3.16284 32.6318 2.94391ZM31.5282 4.26327C29.8894 4.40989 28.2949 4.55252 26.6833 4.69678C27.0821 9.1667 27.4765 13.586 27.8716 18.0151C29.5147 17.8681 31.1004 17.7264 32.7139 17.582C32.3178 13.1351 31.9254 8.72628 31.5282 4.26327Z" fill="white"/>
<path d="M34.9061 28.6564C34.942 30.5959 33.3165 32.3004 31.3971 32.336C29.3183 32.3745 27.6631 30.7953 27.6256 28.7374C27.5895 26.7565 29.238 25.0751 31.2435 25.047C33.207 25.0196 34.8691 26.6575 34.9061 28.6564ZM33.6891 28.7212C33.7023 27.3765 32.6335 26.2958 31.2702 26.2757C29.9583 26.2562 28.8543 27.3465 28.8406 28.6747C28.8271 30.0044 29.8965 31.1017 31.2224 31.1188C32.5751 31.1362 33.6758 30.0666 33.6891 28.7212Z" fill="white"/>
<path d="M26.9832 21.7511C26.946 21.3215 26.9145 20.9566 26.8789 20.5463C28.4793 20.4019 30.0613 20.2591 31.7101 20.1103C31.745 20.5075 31.7795 20.8981 31.8171 21.3225C30.19 21.4668 28.6089 21.6071 26.9832 21.7511Z" fill="white"/>
<path d="M32.9336 20.009C33.3441 19.9711 33.7164 19.9369 34.1343 19.8984C34.1709 20.2989 34.2059 20.6824 34.2437 21.0987C33.8351 21.1388 33.4621 21.1752 33.045 21.216C33.0077 20.8127 32.9724 20.4306 32.9336 20.009Z" fill="white"/>
<path d="M10.0769 19.4199C7.65024 19.4199 5.25659 19.4199 2.83594 19.4199C2.83594 13.7551 2.83594 8.10087 2.83594 2.4267C5.24373 2.4267 7.64661 2.4267 10.0769 2.4267C10.0769 8.07948 10.0769 13.7336 10.0769 19.4199ZM8.86256 3.65146C7.24365 3.65146 5.64523 3.65146 4.04862 3.65146C4.04862 8.51354 4.04862 13.3428 4.04862 18.181C5.66553 18.181 7.25471 18.181 8.86256 18.181C8.86256 13.3365 8.86256 8.51716 8.86256 3.65146Z" fill="white"/>
<path d="M6.45914 32.79C4.45776 32.7914 2.8035 31.1349 2.81057 29.1361C2.81746 27.1626 4.47915 25.506 6.45388 25.5037C8.43949 25.5012 10.1104 27.1786 10.1037 29.1676C10.097 31.1474 8.44602 32.7883 6.45914 32.79ZM8.87581 29.1483C8.87363 27.8156 7.8007 26.7355 6.47092 26.7274C5.13135 26.7192 4.02888 27.8167 4.0325 29.1551C4.03612 30.4772 5.11775 31.5684 6.44119 31.5851C7.76608 31.602 8.87798 30.489 8.87581 29.1483Z" fill="white"/>
<path d="M2.82227 21.8313C2.82227 21.4367 2.82227 21.0607 2.82227 20.6596C4.43447 20.6596 6.03325 20.6596 7.65252 20.6596C7.65252 21.0499 7.65252 21.4255 7.65252 21.8313C6.059 21.8313 4.46075 21.8313 2.82227 21.8313Z" fill="white"/>
<path d="M10.0746 21.8453C9.67832 21.8453 9.30449 21.8453 8.88379 21.8453C8.88379 21.4922 8.87273 21.1535 8.89358 20.8165C8.89757 20.7523 9.02442 20.6489 9.09967 20.6441C9.41423 20.6248 9.73049 20.6361 10.0748 20.6361C10.0746 21.0442 10.0746 21.426 10.0746 21.8453Z" fill="white"/>
</g>
</g>
<defs>
<clipPath id="clip0_43_5081">
<rect width="38.6122" height="37.7143" fill="white"/>
</clipPath>
</defs>
</svg>
