<svg width="32" height="32" viewBox="0 0 32 32" fill="none" xmlns="http://www.w3.org/2000/svg">
<path d="M13.334 16H6.66732C6.3137 16 5.97456 15.8595 5.72451 15.6094C5.47446 15.3594 5.33398 15.0202 5.33398 14.6666V9.99996C5.33398 9.64634 5.47446 9.3072 5.72451 9.05715C5.97456 8.8071 6.3137 8.66663 6.66732 8.66663H12.0007C12.3543 8.66663 12.6934 8.8071 12.9435 9.05715C13.1935 9.3072 13.334 9.64634 13.334 9.99996V16ZM13.334 16C13.334 19.3333 12.0007 21.3333 8.00065 23.3333M26.6673 16H20.0007C19.647 16 19.3079 15.8595 19.0578 15.6094C18.8078 15.3594 18.6673 15.0202 18.6673 14.6666V9.99996C18.6673 9.64634 18.8078 9.3072 19.0578 9.05715C19.3079 8.8071 19.647 8.66663 20.0007 8.66663H25.334C25.6876 8.66663 26.0267 8.8071 26.2768 9.05715C26.5268 9.3072 26.6673 9.64634 26.6673 9.99996V16ZM26.6673 16C26.6673 19.3333 25.334 21.3333 21.334 23.3333" stroke="#007EE6" stroke-width="2.5" stroke-linecap="round"/>
</svg>
