<svg width="15" height="15" viewBox="0 0 15 15" fill="none" xmlns="http://www.w3.org/2000/svg">
<g clip-path="url(#clip0_43_5004)">
<path d="M6.707 2.293C6.51947 2.10553 6.26516 2.00021 6 2.00021C5.73484 2.00021 5.48053 2.10553 5.293 2.293L0.793 6.793C0.605529 6.98053 0.500214 7.23484 0.500214 7.5C0.500214 7.76516 0.605529 8.01947 0.793 8.207L5.293 12.707C5.4816 12.8892 5.7342 12.99 5.9964 12.9877C6.2586 12.9854 6.50941 12.8802 6.69482 12.6948C6.88023 12.5094 6.9854 12.2586 6.98767 11.9964C6.98995 11.7342 6.88916 11.4816 6.707 11.293L4 8.5H13.5C13.7652 8.5 14.0196 8.39464 14.2071 8.20711C14.3946 8.01957 14.5 7.76522 14.5 7.5C14.5 7.23478 14.3946 6.98043 14.2071 6.79289C14.0196 6.60536 13.7652 6.5 13.5 6.5H4L6.707 3.707C6.89447 3.51947 6.99979 3.26516 6.99979 3C6.99979 2.73484 6.89447 2.48053 6.707 2.293Z" fill="white"/>
</g>
<defs>
<clipPath id="clip0_43_5004">
<rect width="15" height="15" fill="white" transform="matrix(-1 0 0 1 15 0)"/>
</clipPath>
</defs>
</svg>
