<svg width="22" height="18" viewBox="0 0 22 18" fill="none" xmlns="http://www.w3.org/2000/svg">
<path d="M13.1748 12.7258C13.3297 12.7969 13.5042 12.8132 13.6695 12.7719C13.8349 12.7306 13.9813 12.6342 14.0845 12.4986L14.3508 12.1498C14.4905 11.9635 14.6717 11.8123 14.88 11.7082C15.0882 11.604 15.3179 11.5498 15.5508 11.5498H17.8008C18.1986 11.5498 18.5801 11.7078 18.8614 11.9891C19.1427 12.2704 19.3008 12.652 19.3008 13.0498V15.2998C19.3008 15.6976 19.1427 16.0792 18.8614 16.3605C18.5801 16.6418 18.1986 16.7998 17.8008 16.7998C14.2204 16.7998 10.7866 15.3775 8.25484 12.8457C5.7231 10.314 4.30078 6.88023 4.30078 3.2998C4.30078 2.90198 4.45882 2.52045 4.74012 2.23914C5.02143 1.95784 5.40296 1.7998 5.80078 1.7998H8.05078C8.44861 1.7998 8.83014 1.95784 9.11144 2.23914C9.39275 2.52045 9.55078 2.90198 9.55078 3.2998V5.5498C9.55078 5.78267 9.49656 6.01234 9.39242 6.22063C9.28828 6.42891 9.13708 6.61008 8.95078 6.7498L8.59978 7.01305C8.46209 7.11819 8.36505 7.26774 8.32512 7.43632C8.2852 7.60489 8.30487 7.78209 8.38078 7.9378C9.40579 10.0197 11.0916 11.7034 13.1748 12.7258Z" stroke="white" stroke-width="1.5" stroke-linecap="round" stroke-linejoin="round"/>
</svg>
